# MagicaVoxel @ Ephtracy

# group
g Brick

# material
mtllib Brick.mtl
usemtl palette

# normals
vn -1 0 0
vn 1 0 0
vn 0 0 1
vn 0 0 -1
vn 0 -1 0
vn 0 1 0

# texcoords
vt 0.912109 0.5
vt 0.916016 0.5

# verts
v -20 2 11
v -20 2 -13
v -20 3 10
v -20 3 3
v -20 3 2
v -20 3 -9
v -20 3 -10
v -20 3 -12
v -20 7 10
v -20 7 3
v -20 7 2
v -20 7 -9
v -20 7 -10
v -20 7 -12
v -20 8 10
v -20 8 -2
v -20 8 -3
v -20 8 -12
v -20 12 10
v -20 12 -2
v -20 12 -3
v -20 12 -12
v -20 13 10
v -20 13 6
v -20 13 5
v -20 13 -6
v -20 13 -7
v -20 13 -12
v -20 17 10
v -20 17 6
v -20 17 5
v -20 17 -6
v -20 17 -7
v -20 17 -12
v -20 18 10
v -20 18 2
v -20 18 1
v -20 18 -12
v -20 22 10
v -20 22 2
v -20 22 1
v -20 22 -12
v -20 23 11
v -20 23 -13
v 20 2 11
v 20 2 -13
v 20 3 10
v 20 3 4
v 20 3 3
v 20 3 -12
v 20 7 10
v 20 7 4
v 20 7 3
v 20 7 -12
v 20 8 10
v 20 8 -4
v 20 8 -5
v 20 8 -12
v 20 12 10
v 20 12 -4
v 20 12 -5
v 20 12 -12
v 20 13 10
v 20 13 -0
v 20 13 -1
v 20 13 -12
v 20 17 10
v 20 17 -0
v 20 17 -1
v 20 17 -12
v 20 18 10
v 20 18 5
v 20 18 4
v 20 18 -6
v 20 18 -7
v 20 18 -12
v 20 22 10
v 20 22 5
v 20 22 4
v 20 22 -6
v 20 22 -7
v 20 22 -12
v 20 23 11
v 20 23 -13
v -20 2 11
v -20 23 11
v -19 3 11
v -19 7 11
v -19 8 11
v -19 12 11
v -19 13 11
v -19 17 11
v -19 18 11
v -19 22 11
v -16 13 11
v -16 17 11
v -15 13 11
v -15 17 11
v -12 3 11
v -12 7 11
v -11 3 11
v -11 7 11
v -10 8 11
v -10 12 11
v -9 8 11
v -9 12 11
v -7 18 11
v -7 22 11
v -6 18 11
v -6 22 11
v -3 13 11
v -3 17 11
v -2 13 11
v -2 17 11
v 2 3 11
v 2 7 11
v 3 3 11
v 3 7 11
v 5 8 11
v 5 12 11
v 6 8 11
v 6 12 11
v 7 18 11
v 7 22 11
v 8 18 11
v 8 22 11
v 12 3 11
v 12 7 11
v 12 13 11
v 12 17 11
v 13 3 11
v 13 7 11
v 13 13 11
v 13 17 11
v 19 3 11
v 19 7 11
v 19 8 11
v 19 12 11
v 19 13 11
v 19 17 11
v 19 18 11
v 19 22 11
v 20 2 11
v 20 23 11
v -20 2 -13
v -20 23 -13
v -19 3 -13
v -19 7 -13
v -19 8 -13
v -19 12 -13
v -19 13 -13
v -19 17 -13
v -19 18 -13
v -19 22 -13
v -12 8 -13
v -12 12 -13
v -12 18 -13
v -12 22 -13
v -11 8 -13
v -11 12 -13
v -11 18 -13
v -11 22 -13
v -6 13 -13
v -6 17 -13
v -5 3 -13
v -5 7 -13
v -5 13 -13
v -5 17 -13
v -4 3 -13
v -4 7 -13
v -1 8 -13
v -1 12 -13
v 0 8 -13
v 0 12 -13
v 2 18 -13
v 2 22 -13
v 3 18 -13
v 3 22 -13
v 4 3 -13
v 4 7 -13
v 5 3 -13
v 5 7 -13
v 9 13 -13
v 9 17 -13
v 10 13 -13
v 10 17 -13
v 11 8 -13
v 11 12 -13
v 12 8 -13
v 12 12 -13
v 13 18 -13
v 13 22 -13
v 14 18 -13
v 14 22 -13
v 19 3 -13
v 19 7 -13
v 19 8 -13
v 19 12 -13
v 19 13 -13
v 19 17 -13
v 19 18 -13
v 19 22 -13
v 20 2 -13
v 20 23 -13
v -20 2 11
v 20 2 11
v -19 2 10
v 19 2 10
v -19 2 -12
v 19 2 -12
v -20 2 -13
v 20 2 -13
v -20 23 11
v 20 23 11
v -19 23 10
v -10 23 10
v -9 23 10
v 6 23 10
v 7 23 10
v 19 23 10
v -19 23 6
v -10 23 6
v -9 23 6
v 6 23 6
v 7 23 6
v 19 23 6
v -19 23 5
v -14 23 5
v -13 23 5
v -3 23 5
v -2 23 5
v 14 23 5
v 15 23 5
v 19 23 5
v -19 23 -0
v -14 23 -0
v -13 23 -0
v -3 23 -0
v -2 23 -0
v 14 23 -0
v 15 23 -0
v 19 23 -0
v -19 23 -2
v -8 23 -2
v -7 23 -2
v 7 23 -2
v 8 23 -2
v 19 23 -2
v -19 23 -7
v -8 23 -7
v -7 23 -7
v 7 23 -7
v 8 23 -7
v 19 23 -7
v -19 23 -8
v -15 23 -8
v -14 23 -8
v 0 23 -8
v 1 23 -8
v 19 23 -8
v -19 23 -12
v -15 23 -12
v -14 23 -12
v 0 23 -12
v 1 23 -12
v 19 23 -12
v -20 23 -13
v 20 23 -13

# faces
f 3/2/1 2/2/1 1/2/1
f 4/2/1 2/2/1 3/2/1
f 5/2/1 2/2/1 4/2/1
f 6/2/1 2/2/1 5/2/1
f 7/2/1 2/2/1 6/2/1
f 8/2/1 2/2/1 7/2/1
f 9/2/1 3/2/1 1/2/1
f 9/1/1 4/1/1 3/1/1
f 10/2/1 5/2/1 4/2/1
f 10/1/1 4/1/1 9/1/1
f 11/1/1 6/1/1 5/1/1
f 11/2/1 5/2/1 10/2/1
f 12/2/1 7/2/1 6/2/1
f 12/1/1 6/1/1 11/1/1
f 13/1/1 8/1/1 7/1/1
f 13/2/1 7/2/1 12/2/1
f 14/2/1 2/2/1 8/2/1
f 14/1/1 8/1/1 13/1/1
f 15/2/1 13/2/1 12/2/1
f 15/2/1 12/2/1 11/2/1
f 15/2/1 14/2/1 13/2/1
f 15/2/1 11/2/1 10/2/1
f 15/2/1 10/2/1 9/2/1
f 15/2/1 9/2/1 1/2/1
f 16/2/1 14/2/1 15/2/1
f 17/2/1 14/2/1 16/2/1
f 18/2/1 2/2/1 14/2/1
f 18/2/1 14/2/1 17/2/1
f 19/2/1 15/2/1 1/2/1
f 19/1/1 16/1/1 15/1/1
f 20/2/1 17/2/1 16/2/1
f 20/1/1 16/1/1 19/1/1
f 21/1/1 18/1/1 17/1/1
f 21/2/1 17/2/1 20/2/1
f 22/2/1 2/2/1 18/2/1
f 22/1/1 18/1/1 21/1/1
f 23/2/1 19/2/1 1/2/1
f 23/2/1 21/2/1 20/2/1
f 23/2/1 22/2/1 21/2/1
f 23/2/1 20/2/1 19/2/1
f 24/2/1 22/2/1 23/2/1
f 25/2/1 22/2/1 24/2/1
f 26/2/1 22/2/1 25/2/1
f 27/2/1 22/2/1 26/2/1
f 28/2/1 2/2/1 22/2/1
f 28/2/1 22/2/1 27/2/1
f 29/2/1 23/2/1 1/2/1
f 29/1/1 24/1/1 23/1/1
f 30/2/1 25/2/1 24/2/1
f 30/1/1 24/1/1 29/1/1
f 31/1/1 26/1/1 25/1/1
f 31/2/1 25/2/1 30/2/1
f 32/2/1 27/2/1 26/2/1
f 32/1/1 26/1/1 31/1/1
f 33/1/1 28/1/1 27/1/1
f 33/2/1 27/2/1 32/2/1
f 34/2/1 2/2/1 28/2/1
f 34/1/1 28/1/1 33/1/1
f 35/2/1 31/2/1 30/2/1
f 35/2/1 33/2/1 32/2/1
f 35/2/1 34/2/1 33/2/1
f 35/2/1 30/2/1 29/2/1
f 35/2/1 29/2/1 1/2/1
f 35/2/1 32/2/1 31/2/1
f 36/2/1 34/2/1 35/2/1
f 37/2/1 34/2/1 36/2/1
f 38/2/1 2/2/1 34/2/1
f 38/2/1 34/2/1 37/2/1
f 39/2/1 35/2/1 1/2/1
f 39/1/1 36/1/1 35/1/1
f 40/2/1 37/2/1 36/2/1
f 40/1/1 36/1/1 39/1/1
f 41/1/1 38/1/1 37/1/1
f 41/2/1 37/2/1 40/2/1
f 42/2/1 2/2/1 38/2/1
f 42/1/1 38/1/1 41/1/1
f 43/2/1 39/2/1 1/2/1
f 43/2/1 41/2/1 40/2/1
f 43/2/1 42/2/1 41/2/1
f 43/2/1 40/2/1 39/2/1
f 44/2/1 2/2/1 42/2/1
f 44/2/1 42/2/1 43/2/1
f 45/2/2 46/2/2 47/2/2
f 47/2/2 46/2/2 48/2/2
f 48/2/2 46/2/2 49/2/2
f 49/2/2 46/2/2 50/2/2
f 45/2/2 47/2/2 51/2/2
f 47/1/2 48/1/2 51/1/2
f 48/2/2 49/2/2 52/2/2
f 51/1/2 48/1/2 52/1/2
f 49/1/2 50/1/2 53/1/2
f 52/2/2 49/2/2 53/2/2
f 50/2/2 46/2/2 54/2/2
f 53/1/2 50/1/2 54/1/2
f 52/2/2 53/2/2 55/2/2
f 51/2/2 52/2/2 55/2/2
f 53/2/2 54/2/2 55/2/2
f 45/2/2 51/2/2 55/2/2
f 55/2/2 54/2/2 56/2/2
f 56/2/2 54/2/2 57/2/2
f 54/2/2 46/2/2 58/2/2
f 57/2/2 54/2/2 58/2/2
f 45/2/2 55/2/2 59/2/2
f 55/1/2 56/1/2 59/1/2
f 56/2/2 57/2/2 60/2/2
f 59/1/2 56/1/2 60/1/2
f 57/1/2 58/1/2 61/1/2
f 60/2/2 57/2/2 61/2/2
f 58/2/2 46/2/2 62/2/2
f 61/1/2 58/1/2 62/1/2
f 45/2/2 59/2/2 63/2/2
f 60/2/2 61/2/2 63/2/2
f 61/2/2 62/2/2 63/2/2
f 59/2/2 60/2/2 63/2/2
f 63/2/2 62/2/2 64/2/2
f 64/2/2 62/2/2 65/2/2
f 62/2/2 46/2/2 66/2/2
f 65/2/2 62/2/2 66/2/2
f 45/2/2 63/2/2 67/2/2
f 63/1/2 64/1/2 67/1/2
f 64/2/2 65/2/2 68/2/2
f 67/1/2 64/1/2 68/1/2
f 65/1/2 66/1/2 69/1/2
f 68/2/2 65/2/2 69/2/2
f 66/2/2 46/2/2 70/2/2
f 69/1/2 66/1/2 70/1/2
f 45/2/2 67/2/2 71/2/2
f 68/2/2 69/2/2 71/2/2
f 69/2/2 70/2/2 71/2/2
f 67/2/2 68/2/2 71/2/2
f 71/2/2 70/2/2 72/2/2
f 72/2/2 70/2/2 73/2/2
f 73/2/2 70/2/2 74/2/2
f 74/2/2 70/2/2 75/2/2
f 70/2/2 46/2/2 76/2/2
f 75/2/2 70/2/2 76/2/2
f 45/2/2 71/2/2 77/2/2
f 71/1/2 72/1/2 77/1/2
f 72/2/2 73/2/2 78/2/2
f 77/1/2 72/1/2 78/1/2
f 73/1/2 74/1/2 79/1/2
f 78/2/2 73/2/2 79/2/2
f 74/2/2 75/2/2 80/2/2
f 79/1/2 74/1/2 80/1/2
f 75/1/2 76/1/2 81/1/2
f 80/2/2 75/2/2 81/2/2
f 76/2/2 46/2/2 82/2/2
f 81/1/2 76/1/2 82/1/2
f 78/2/2 79/2/2 83/2/2
f 80/2/2 81/2/2 83/2/2
f 81/2/2 82/2/2 83/2/2
f 77/2/2 78/2/2 83/2/2
f 45/2/2 77/2/2 83/2/2
f 79/2/2 80/2/2 83/2/2
f 82/2/2 46/2/2 84/2/2
f 83/2/2 82/2/2 84/2/2
f 87/2/3 86/2/3 85/2/3
f 88/2/3 86/2/3 87/2/3
f 89/2/3 86/2/3 88/2/3
f 90/2/3 86/2/3 89/2/3
f 91/2/3 86/2/3 90/2/3
f 92/2/3 86/2/3 91/2/3
f 93/2/3 86/2/3 92/2/3
f 94/2/3 86/2/3 93/2/3
f 95/2/3 91/2/3 90/2/3
f 95/1/3 92/1/3 91/1/3
f 96/2/3 93/2/3 92/2/3
f 96/1/3 92/1/3 95/1/3
f 97/2/3 95/2/3 90/2/3
f 97/2/3 96/2/3 95/2/3
f 98/2/3 93/2/3 96/2/3
f 98/2/3 96/2/3 97/2/3
f 99/2/3 87/2/3 85/2/3
f 99/1/3 88/1/3 87/1/3
f 100/2/3 89/2/3 88/2/3
f 100/1/3 88/1/3 99/1/3
f 101/2/3 99/2/3 85/2/3
f 101/2/3 100/2/3 99/2/3
f 102/2/3 89/2/3 100/2/3
f 102/2/3 100/2/3 101/2/3
f 103/1/3 90/1/3 89/1/3
f 103/2/3 89/2/3 102/2/3
f 104/2/3 97/2/3 90/2/3
f 104/1/3 90/1/3 103/1/3
f 105/2/3 103/2/3 102/2/3
f 105/2/3 104/2/3 103/2/3
f 106/2/3 97/2/3 104/2/3
f 106/2/3 104/2/3 105/2/3
f 107/2/3 93/2/3 98/2/3
f 107/1/3 94/1/3 93/1/3
f 108/2/3 86/2/3 94/2/3
f 108/1/3 94/1/3 107/1/3
f 109/2/3 107/2/3 98/2/3
f 109/2/3 108/2/3 107/2/3
f 110/2/3 86/2/3 108/2/3
f 110/2/3 108/2/3 109/2/3
f 111/2/3 97/2/3 106/2/3
f 111/1/3 98/1/3 97/1/3
f 112/2/3 109/2/3 98/2/3
f 112/1/3 98/1/3 111/1/3
f 113/2/3 111/2/3 106/2/3
f 113/2/3 112/2/3 111/2/3
f 114/2/3 109/2/3 112/2/3
f 114/2/3 112/2/3 113/2/3
f 115/2/3 101/2/3 85/2/3
f 115/1/3 102/1/3 101/1/3
f 116/2/3 105/2/3 102/2/3
f 116/1/3 102/1/3 115/1/3
f 117/2/3 115/2/3 85/2/3
f 117/2/3 116/2/3 115/2/3
f 118/2/3 105/2/3 116/2/3
f 118/2/3 116/2/3 117/2/3
f 119/1/3 106/1/3 105/1/3
f 119/2/3 105/2/3 118/2/3
f 120/2/3 113/2/3 106/2/3
f 120/1/3 106/1/3 119/1/3
f 121/2/3 119/2/3 118/2/3
f 121/2/3 120/2/3 119/2/3
f 122/2/3 113/2/3 120/2/3
f 122/2/3 120/2/3 121/2/3
f 123/1/3 110/1/3 109/1/3
f 123/2/3 109/2/3 114/2/3
f 124/2/3 86/2/3 110/2/3
f 124/1/3 110/1/3 123/1/3
f 125/2/3 123/2/3 114/2/3
f 125/2/3 124/2/3 123/2/3
f 126/2/3 86/2/3 124/2/3
f 126/2/3 124/2/3 125/2/3
f 127/1/3 118/1/3 117/1/3
f 127/2/3 117/2/3 85/2/3
f 128/2/3 121/2/3 118/2/3
f 128/1/3 118/1/3 127/1/3
f 129/2/3 113/2/3 122/2/3
f 129/1/3 114/1/3 113/1/3
f 130/2/3 125/2/3 114/2/3
f 130/1/3 114/1/3 129/1/3
f 131/2/3 128/2/3 127/2/3
f 131/2/3 127/2/3 85/2/3
f 132/2/3 121/2/3 128/2/3
f 132/2/3 128/2/3 131/2/3
f 133/2/3 129/2/3 122/2/3
f 133/2/3 130/2/3 129/2/3
f 134/2/3 125/2/3 130/2/3
f 134/2/3 130/2/3 133/2/3
f 135/2/3 131/2/3 85/2/3
f 135/1/3 132/1/3 131/1/3
f 136/2/3 121/2/3 132/2/3
f 136/1/3 132/1/3 135/1/3
f 137/1/3 122/1/3 121/1/3
f 137/2/3 121/2/3 136/2/3
f 138/2/3 133/2/3 122/2/3
f 138/1/3 122/1/3 137/1/3
f 139/1/3 134/1/3 133/1/3
f 139/2/3 133/2/3 138/2/3
f 140/2/3 125/2/3 134/2/3
f 140/1/3 134/1/3 139/1/3
f 141/1/3 126/1/3 125/1/3
f 141/2/3 125/2/3 140/2/3
f 142/2/3 86/2/3 126/2/3
f 142/1/3 126/1/3 141/1/3
f 143/2/3 135/2/3 85/2/3
f 143/2/3 139/2/3 138/2/3
f 143/2/3 142/2/3 141/2/3
f 143/2/3 140/2/3 139/2/3
f 143/2/3 141/2/3 140/2/3
f 143/2/3 138/2/3 137/2/3
f 143/2/3 137/2/3 136/2/3
f 143/2/3 136/2/3 135/2/3
f 144/2/3 86/2/3 142/2/3
f 144/2/3 142/2/3 143/2/3
f 145/2/4 146/2/4 147/2/4
f 147/2/4 146/2/4 148/2/4
f 148/2/4 146/2/4 149/2/4
f 149/2/4 146/2/4 150/2/4
f 150/2/4 146/2/4 151/2/4
f 151/2/4 146/2/4 152/2/4
f 152/2/4 146/2/4 153/2/4
f 153/2/4 146/2/4 154/2/4
f 148/2/4 149/2/4 155/2/4
f 149/1/4 150/1/4 155/1/4
f 150/2/4 151/2/4 156/2/4
f 155/1/4 150/1/4 156/1/4
f 153/1/4 154/1/4 157/1/4
f 152/2/4 153/2/4 157/2/4
f 154/2/4 146/2/4 158/2/4
f 157/1/4 154/1/4 158/1/4
f 148/2/4 155/2/4 159/2/4
f 155/2/4 156/2/4 159/2/4
f 156/2/4 151/2/4 160/2/4
f 159/2/4 156/2/4 160/2/4
f 152/2/4 157/2/4 161/2/4
f 157/2/4 158/2/4 161/2/4
f 158/2/4 146/2/4 162/2/4
f 161/2/4 158/2/4 162/2/4
f 160/2/4 151/2/4 163/2/4
f 151/1/4 152/1/4 163/1/4
f 152/2/4 161/2/4 164/2/4
f 163/1/4 152/1/4 164/1/4
f 145/2/4 147/2/4 165/2/4
f 147/1/4 148/1/4 165/1/4
f 148/2/4 159/2/4 166/2/4
f 165/1/4 148/1/4 166/1/4
f 163/2/4 164/2/4 167/2/4
f 160/2/4 163/2/4 167/2/4
f 164/2/4 161/2/4 168/2/4
f 167/2/4 164/2/4 168/2/4
f 145/2/4 165/2/4 169/2/4
f 165/2/4 166/2/4 169/2/4
f 166/2/4 159/2/4 170/2/4
f 169/2/4 166/2/4 170/2/4
f 159/1/4 160/1/4 171/1/4
f 170/2/4 159/2/4 171/2/4
f 160/2/4 167/2/4 172/2/4
f 171/1/4 160/1/4 172/1/4
f 170/2/4 171/2/4 173/2/4
f 171/2/4 172/2/4 173/2/4
f 172/2/4 167/2/4 174/2/4
f 173/2/4 172/2/4 174/2/4
f 168/2/4 161/2/4 175/2/4
f 161/1/4 162/1/4 175/1/4
f 162/2/4 146/2/4 176/2/4
f 175/1/4 162/1/4 176/1/4
f 168/2/4 175/2/4 177/2/4
f 175/2/4 176/2/4 177/2/4
f 176/2/4 146/2/4 178/2/4
f 177/2/4 176/2/4 178/2/4
f 145/2/4 169/2/4 179/2/4
f 169/1/4 170/1/4 179/1/4
f 170/2/4 173/2/4 180/2/4
f 179/1/4 170/1/4 180/1/4
f 145/2/4 179/2/4 181/2/4
f 179/2/4 180/2/4 181/2/4
f 180/2/4 173/2/4 182/2/4
f 181/2/4 180/2/4 182/2/4
f 174/2/4 167/2/4 183/2/4
f 167/1/4 168/1/4 183/1/4
f 168/2/4 177/2/4 184/2/4
f 183/1/4 168/1/4 184/1/4
f 174/2/4 183/2/4 185/2/4
f 183/2/4 184/2/4 185/2/4
f 184/2/4 177/2/4 186/2/4
f 185/2/4 184/2/4 186/2/4
f 182/2/4 173/2/4 187/2/4
f 173/1/4 174/1/4 187/1/4
f 174/2/4 185/2/4 188/2/4
f 187/1/4 174/1/4 188/1/4
f 182/2/4 187/2/4 189/2/4
f 187/2/4 188/2/4 189/2/4
f 188/2/4 185/2/4 190/2/4
f 189/2/4 188/2/4 190/2/4
f 186/2/4 177/2/4 191/2/4
f 177/1/4 178/1/4 191/1/4
f 178/2/4 146/2/4 192/2/4
f 191/1/4 178/1/4 192/1/4
f 186/2/4 191/2/4 193/2/4
f 191/2/4 192/2/4 193/2/4
f 192/2/4 146/2/4 194/2/4
f 193/2/4 192/2/4 194/2/4
f 145/2/4 181/2/4 195/2/4
f 181/1/4 182/1/4 195/1/4
f 182/2/4 189/2/4 196/2/4
f 195/1/4 182/1/4 196/1/4
f 189/1/4 190/1/4 197/1/4
f 196/2/4 189/2/4 197/2/4
f 190/2/4 185/2/4 198/2/4
f 197/1/4 190/1/4 198/1/4
f 185/1/4 186/1/4 199/1/4
f 198/2/4 185/2/4 199/2/4
f 186/2/4 193/2/4 200/2/4
f 199/1/4 186/1/4 200/1/4
f 193/1/4 194/1/4 201/1/4
f 200/2/4 193/2/4 201/2/4
f 194/2/4 146/2/4 202/2/4
f 201/1/4 194/1/4 202/1/4
f 200/2/4 201/2/4 203/2/4
f 198/2/4 199/2/4 203/2/4
f 201/2/4 202/2/4 203/2/4
f 195/2/4 196/2/4 203/2/4
f 197/2/4 198/2/4 203/2/4
f 199/2/4 200/2/4 203/2/4
f 196/2/4 197/2/4 203/2/4
f 145/2/4 195/2/4 203/2/4
f 202/2/4 146/2/4 204/2/4
f 203/2/4 202/2/4 204/2/4
f 207/2/5 206/2/5 205/2/5
f 208/2/5 206/2/5 207/2/5
f 209/2/5 207/2/5 205/2/5
f 209/1/5 208/1/5 207/1/5
f 210/2/5 206/2/5 208/2/5
f 210/1/5 208/1/5 209/1/5
f 211/2/5 209/2/5 205/2/5
f 211/2/5 210/2/5 209/2/5
f 212/2/5 206/2/5 210/2/5
f 212/2/5 210/2/5 211/2/5
f 213/2/6 214/2/6 215/2/6
f 215/2/6 214/2/6 216/2/6
f 216/2/6 214/2/6 217/2/6
f 217/2/6 214/2/6 218/2/6
f 218/2/6 214/2/6 219/2/6
f 219/2/6 214/2/6 220/2/6
f 213/2/6 215/2/6 221/2/6
f 215/1/6 216/1/6 221/1/6
f 216/2/6 217/2/6 222/2/6
f 221/1/6 216/1/6 222/1/6
f 217/1/6 218/1/6 223/1/6
f 222/2/6 217/2/6 223/2/6
f 218/2/6 219/2/6 224/2/6
f 223/1/6 218/1/6 224/1/6
f 219/1/6 220/1/6 225/1/6
f 224/2/6 219/2/6 225/2/6
f 220/2/6 214/2/6 226/2/6
f 225/1/6 220/1/6 226/1/6
f 224/2/6 225/2/6 227/2/6
f 223/2/6 224/2/6 227/2/6
f 225/2/6 226/2/6 227/2/6
f 222/2/6 223/2/6 227/2/6
f 221/2/6 222/2/6 227/2/6
f 213/2/6 221/2/6 227/2/6
f 227/2/6 226/2/6 228/2/6
f 228/2/6 226/2/6 229/2/6
f 229/2/6 226/2/6 230/2/6
f 230/2/6 226/2/6 231/2/6
f 231/2/6 226/2/6 232/2/6
f 232/2/6 226/2/6 233/2/6
f 226/2/6 214/2/6 234/2/6
f 233/2/6 226/2/6 234/2/6
f 213/2/6 227/2/6 235/2/6
f 227/1/6 228/1/6 235/1/6
f 228/2/6 229/2/6 236/2/6
f 235/1/6 228/1/6 236/1/6
f 229/1/6 230/1/6 237/1/6
f 236/2/6 229/2/6 237/2/6
f 230/2/6 231/2/6 238/2/6
f 237/1/6 230/1/6 238/1/6
f 231/1/6 232/1/6 239/1/6
f 238/2/6 231/2/6 239/2/6
f 232/2/6 233/2/6 240/2/6
f 239/1/6 232/1/6 240/1/6
f 233/1/6 234/1/6 241/1/6
f 240/2/6 233/2/6 241/2/6
f 234/2/6 214/2/6 242/2/6
f 241/1/6 234/1/6 242/1/6
f 238/2/6 239/2/6 243/2/6
f 240/2/6 241/2/6 243/2/6
f 241/2/6 242/2/6 243/2/6
f 237/2/6 238/2/6 243/2/6
f 236/2/6 237/2/6 243/2/6
f 235/2/6 236/2/6 243/2/6
f 213/2/6 235/2/6 243/2/6
f 239/2/6 240/2/6 243/2/6
f 243/2/6 242/2/6 244/2/6
f 244/2/6 242/2/6 245/2/6
f 245/2/6 242/2/6 246/2/6
f 246/2/6 242/2/6 247/2/6
f 242/2/6 214/2/6 248/2/6
f 247/2/6 242/2/6 248/2/6
f 213/2/6 243/2/6 249/2/6
f 243/1/6 244/1/6 249/1/6
f 244/2/6 245/2/6 250/2/6
f 249/1/6 244/1/6 250/1/6
f 245/1/6 246/1/6 251/1/6
f 250/2/6 245/2/6 251/2/6
f 246/2/6 247/2/6 252/2/6
f 251/1/6 246/1/6 252/1/6
f 247/1/6 248/1/6 253/1/6
f 252/2/6 247/2/6 253/2/6
f 248/2/6 214/2/6 254/2/6
f 253/1/6 248/1/6 254/1/6
f 250/2/6 251/2/6 255/2/6
f 252/2/6 253/2/6 255/2/6
f 253/2/6 254/2/6 255/2/6
f 249/2/6 250/2/6 255/2/6
f 213/2/6 249/2/6 255/2/6
f 251/2/6 252/2/6 255/2/6
f 255/2/6 254/2/6 256/2/6
f 256/2/6 254/2/6 257/2/6
f 257/2/6 254/2/6 258/2/6
f 258/2/6 254/2/6 259/2/6
f 254/2/6 214/2/6 260/2/6
f 259/2/6 254/2/6 260/2/6
f 213/2/6 255/2/6 261/2/6
f 255/1/6 256/1/6 261/1/6
f 256/2/6 257/2/6 262/2/6
f 261/1/6 256/1/6 262/1/6
f 257/1/6 258/1/6 263/1/6
f 262/2/6 257/2/6 263/2/6
f 258/2/6 259/2/6 264/2/6
f 263/1/6 258/1/6 264/1/6
f 259/1/6 260/1/6 265/1/6
f 264/2/6 259/2/6 265/2/6
f 260/2/6 214/2/6 266/2/6
f 265/1/6 260/1/6 266/1/6
f 262/2/6 263/2/6 267/2/6
f 264/2/6 265/2/6 267/2/6
f 265/2/6 266/2/6 267/2/6
f 261/2/6 262/2/6 267/2/6
f 213/2/6 261/2/6 267/2/6
f 263/2/6 264/2/6 267/2/6
f 266/2/6 214/2/6 268/2/6
f 267/2/6 266/2/6 268/2/6
